<mxfile host="app.diagrams.net" modified="2021-01-01T13:53:07.469Z" agent="5.0 (Windows NT 10.0; Win64; x64) AppleWebKit/537.36 (KHTML, like Gecko) Chrome/86.0.4240.111 Safari/537.36" etag="0T-jJ07OmLVZh8oJyLhQ" version="13.9.3" type="github">
  <diagram id="ZJMY6w2euj4KXa6WpqgG" name="第 1 页">
    <mxGraphModel dx="1056" dy="593" grid="1" gridSize="10" guides="1" tooltips="1" connect="1" arrows="1" fold="1" page="1" pageScale="1" pageWidth="827" pageHeight="1169" math="0" shadow="0">
      <root>
        <mxCell id="0" />
        <mxCell id="1" parent="0" />
        <mxCell id="-_Pud06FE_EPt9ds0ucO-12" style="edgeStyle=orthogonalEdgeStyle;rounded=0;orthogonalLoop=1;jettySize=auto;html=1;" edge="1" parent="1" source="-_Pud06FE_EPt9ds0ucO-1">
          <mxGeometry relative="1" as="geometry">
            <mxPoint x="360" y="100" as="targetPoint" />
          </mxGeometry>
        </mxCell>
        <mxCell id="-_Pud06FE_EPt9ds0ucO-1" value="performMeasure" style="rounded=0;whiteSpace=wrap;html=1;" vertex="1" parent="1">
          <mxGeometry x="130" y="70" width="150" height="60" as="geometry" />
        </mxCell>
        <mxCell id="-_Pud06FE_EPt9ds0ucO-10" style="edgeStyle=orthogonalEdgeStyle;rounded=0;orthogonalLoop=1;jettySize=auto;html=1;entryX=0.5;entryY=0;entryDx=0;entryDy=0;" edge="1" parent="1" source="-_Pud06FE_EPt9ds0ucO-2" target="-_Pud06FE_EPt9ds0ucO-3">
          <mxGeometry relative="1" as="geometry" />
        </mxCell>
        <mxCell id="-_Pud06FE_EPt9ds0ucO-11" style="edgeStyle=orthogonalEdgeStyle;rounded=0;orthogonalLoop=1;jettySize=auto;html=1;" edge="1" parent="1" source="-_Pud06FE_EPt9ds0ucO-13">
          <mxGeometry relative="1" as="geometry">
            <mxPoint x="620" y="220" as="targetPoint" />
            <Array as="points">
              <mxPoint x="445" y="180" />
              <mxPoint x="550" y="180" />
              <mxPoint x="550" y="220" />
            </Array>
          </mxGeometry>
        </mxCell>
        <mxCell id="-_Pud06FE_EPt9ds0ucO-2" value="measure" style="rounded=0;whiteSpace=wrap;html=1;" vertex="1" parent="1">
          <mxGeometry x="370" y="70" width="150" height="60" as="geometry" />
        </mxCell>
        <mxCell id="-_Pud06FE_EPt9ds0ucO-3" value="onMeasure" style="rounded=0;whiteSpace=wrap;html=1;" vertex="1" parent="1">
          <mxGeometry x="370" y="260" width="150" height="60" as="geometry" />
        </mxCell>
        <mxCell id="-_Pud06FE_EPt9ds0ucO-4" value="ViewRootImpl" style="text;html=1;strokeColor=none;fillColor=none;align=center;verticalAlign=middle;whiteSpace=wrap;rounded=0;" vertex="1" parent="1">
          <mxGeometry x="180" y="30" width="40" height="20" as="geometry" />
        </mxCell>
        <mxCell id="-_Pud06FE_EPt9ds0ucO-5" value="View" style="text;html=1;align=center;verticalAlign=middle;resizable=0;points=[];autosize=1;" vertex="1" parent="1">
          <mxGeometry x="420" y="30" width="40" height="20" as="geometry" />
        </mxCell>
        <mxCell id="-_Pud06FE_EPt9ds0ucO-8" style="edgeStyle=orthogonalEdgeStyle;rounded=0;orthogonalLoop=1;jettySize=auto;html=1;entryX=1;entryY=0.5;entryDx=0;entryDy=0;" edge="1" parent="1" source="-_Pud06FE_EPt9ds0ucO-6" target="-_Pud06FE_EPt9ds0ucO-2">
          <mxGeometry relative="1" as="geometry">
            <Array as="points">
              <mxPoint x="705" y="100" />
            </Array>
          </mxGeometry>
        </mxCell>
        <mxCell id="-_Pud06FE_EPt9ds0ucO-6" value="onMeasure" style="rounded=0;whiteSpace=wrap;html=1;" vertex="1" parent="1">
          <mxGeometry x="630" y="190" width="150" height="60" as="geometry" />
        </mxCell>
        <mxCell id="-_Pud06FE_EPt9ds0ucO-9" value="child.measure" style="text;html=1;align=center;verticalAlign=middle;resizable=0;points=[];autosize=1;" vertex="1" parent="1">
          <mxGeometry x="610" y="110" width="90" height="20" as="geometry" />
        </mxCell>
        <mxCell id="-_Pud06FE_EPt9ds0ucO-13" value="isViewGroup" style="text;html=1;align=center;verticalAlign=middle;resizable=0;points=[];autosize=1;" vertex="1" parent="1">
          <mxGeometry x="405" y="140" width="80" height="20" as="geometry" />
        </mxCell>
        <mxCell id="-_Pud06FE_EPt9ds0ucO-14" style="edgeStyle=orthogonalEdgeStyle;rounded=0;orthogonalLoop=1;jettySize=auto;html=1;" edge="1" parent="1" source="-_Pud06FE_EPt9ds0ucO-2" target="-_Pud06FE_EPt9ds0ucO-13">
          <mxGeometry relative="1" as="geometry">
            <mxPoint x="620" y="220" as="targetPoint" />
            <mxPoint x="445" y="130" as="sourcePoint" />
            <Array as="points" />
          </mxGeometry>
        </mxCell>
        <mxCell id="-_Pud06FE_EPt9ds0ucO-15" value="false" style="text;html=1;align=center;verticalAlign=middle;resizable=0;points=[];autosize=1;" vertex="1" parent="1">
          <mxGeometry x="400" y="210" width="40" height="20" as="geometry" />
        </mxCell>
        <mxCell id="-_Pud06FE_EPt9ds0ucO-16" value="true" style="text;html=1;align=center;verticalAlign=middle;resizable=0;points=[];autosize=1;" vertex="1" parent="1">
          <mxGeometry x="550" y="180" width="40" height="20" as="geometry" />
        </mxCell>
        <mxCell id="-_Pud06FE_EPt9ds0ucO-17" value="ViewGroup" style="text;html=1;align=center;verticalAlign=middle;resizable=0;points=[];autosize=1;" vertex="1" parent="1">
          <mxGeometry x="660" y="30" width="70" height="20" as="geometry" />
        </mxCell>
      </root>
    </mxGraphModel>
  </diagram>
</mxfile>
